<?xml version="1.0" standalone="no"?>
<!DOCTYPE svg PUBLIC "-//W3C//DTD SVG 20010904//EN"
 "http://www.w3.org/TR/2001/REC-SVG-20010904/DTD/svg10.dtd">
<svg version="1.0" xmlns="http://www.w3.org/2000/svg"
 width="80.000000pt" height="88.000000pt" viewBox="0 0 80.000000 88.000000"
 preserveAspectRatio="xMidYMid meet">

<g transform="translate(0.000000,88.000000) scale(0.100000,-0.100000)"
fill="#000000" stroke="none">
<path d="M340 698 l0 -153 49 -27 c27 -16 52 -28 55 -28 3 0 6 38 6 85 0 47 3
85 8 85 4 0 31 -14 60 -30 l52 -30 0 -195 c0 -106 4 -196 8 -199 4 -2 29 9 55
25 l47 29 0 199 0 199 -127 72 c-71 40 -147 84 -170 97 l-43 25 0 -154z"/>
<path d="M157 662 l-47 -27 0 -202 0 -202 163 -92 c89 -50 165 -94 170 -96 4
-2 7 69 7 159 l0 163 -50 28 c-28 15 -52 27 -55 27 -3 0 -5 -43 -5 -95 0 -52
-3 -95 -6 -95 -3 0 -30 15 -60 32 l-54 33 0 192 c0 105 -3 194 -8 197 -4 2
-29 -8 -55 -22z"/>
</g>
</svg>
